<?xml version="1.0" standalone="no"?>
<!DOCTYPE svg PUBLIC "-//W3C//DTD SVG 1.1//EN" "http://www.w3.org/Graphics/SVG/1.1/DTD/svg11.dtd" >
<svg xmlns="http://www.w3.org/2000/svg">
<metadata>
Created by FontForge 20120731 at Sun Apr  9 16:55:34 2017
 By admin
</metadata>
<defs>
<font id="iconfont" horiz-adv-x="1024" >
  <font-face 
    font-family="iconfont"
    font-weight="500"
    font-stretch="normal"
    units-per-em="1024"
    panose-1="2 0 6 3 0 0 0 0 0 0"
    ascent="896"
    descent="-128"
    x-height="792"
    bbox="23 -92 1001 864"
    underline-thickness="0"
    underline-position="0"
    unicode-range="U+0078-E66B"
  />
<missing-glyph 
 />
    <glyph glyph-name=".notdef" 
 />
    <glyph glyph-name=".notdef" 
 />
    <glyph glyph-name=".null" horiz-adv-x="0" 
 />
    <glyph glyph-name="nonmarkingreturn" horiz-adv-x="341" 
 />
    <glyph glyph-name="x" unicode="x" horiz-adv-x="1001" 
d="M281 543q-27 -1 -53 -1h-83q-18 0 -36.5 -6t-32.5 -18.5t-23 -32t-9 -45.5v-76h912v41q0 16 -0.5 30t-0.5 18q0 13 -5 29t-17 29.5t-31.5 22.5t-49.5 9h-133v-97h-438v97zM955 310v-52q0 -23 0.5 -52t0.5 -58t-10.5 -47.5t-26 -30t-33 -16t-31.5 -4.5q-14 -1 -29.5 -0.5
t-29.5 0.5h-32l-45 128h-439l-44 -128h-29h-34q-20 0 -45 1q-25 0 -41 9.5t-25.5 23t-13.5 29.5t-4 30v167h911zM163 247q-12 0 -21 -8.5t-9 -21.5t9 -21.5t21 -8.5q13 0 22 8.5t9 21.5t-9 21.5t-22 8.5zM316 123q-8 -26 -14 -48q-5 -19 -10.5 -37t-7.5 -25t-3 -15t1 -14.5
t9.5 -10.5t21.5 -4h37h67h81h80h64h36q23 0 34 12t2 38q-5 13 -9.5 30.5t-9.5 34.5q-5 19 -11 39h-368zM336 498v228q0 11 2.5 23t10 21.5t20.5 15.5t34 6h188q31 0 51.5 -14.5t20.5 -52.5v-227h-327z" />
    <glyph glyph-name="shangjiantou" unicode="&#xe622;" 
d="M966 185l-435 432q-7 7 -17.5 7t-17.5 -7l-442 -432q-7 -8 -7 -18t7.5 -17.5t17.5 -7.5t18 7l425 416l416 -416q7 -7 17.5 -7t18 7.5t7.5 17.5t-8 18z" />
    <glyph glyph-name="youjiantou" unicode="&#xe623;" 
d="M762 406l-432 436q-8 7 -18 7t-17.5 -7.5t-7.5 -17.5t7 -18l416 -416l-416 -425q-7 -7 -7 -17.5t7.5 -18t17.5 -7.5t18 8l432 441q7 7 7 17.5t-7 17.5z" />
    <glyph glyph-name="xiajiantou" unicode="&#xe624;" 
d="M966 615q-7 8 -17.5 8t-17.5 -8l-416 -416l-425 416q-8 8 -18 8t-17.5 -7.5t-7.5 -18t7 -17.5l442 -432q7 -7 17.5 -7t17.5 7l435 432q15 20 0 35z" />
    <glyph glyph-name="zuojiantou" unicode="&#xe625;" 
d="M730 -35l-416 425l416 416q7 8 7 18t-7.5 17.5t-17.5 7.5t-18 -7l-432 -436q-7 -7 -7 -17.5t7 -17.5l432 -441q8 -8 18 -8t17.5 7.5t7.5 18t-7 17.5z" />
    <glyph glyph-name="youhuiquan" unicode="&#xe626;" 
d="M877 708h-727q-43 0 -72.5 -29.5t-29.5 -72.5v-167h26q20 0 35.5 -15.5t15.5 -38.5q0 -22 -15 -38t-36 -16h-26v-170q0 -43 29.5 -72.5t72.5 -29.5h727q43 0 72.5 29.5t29.5 72.5v170h-22q-20 0 -35.5 15.5t-15.5 38.5q0 22 14.5 38t36.5 16h1h1h1h1h2h1h2h1h2h2h8v52
v118q-2 41 -32 70t-70 29zM851 388q0 -35 21 -62t53 -37v-122q0 -21 -15 -36t-36 -15h-727q-21 0 -36 15t-15 36v119q36 4 56.5 34t20.5 68q0 37 -22 66.5t-55 36.5v115q0 21 15 36t36 15h727q21 0 36 -15t15 -36v-119q-32 -7 -53 -35t-21 -64zM614 385q10 0 18 8t8 17.5
t-8 17.5t-18 8h-67l58 58q7 7 7 17.5t-7 17.5t-17.5 7t-17.5 -7l-58 -58l-58 58q-7 7 -17.5 7t-17.5 -7t-7 -17.5t7 -17.5l58 -58h-64q-10 0 -18 -8t-8 -17.5t8 -17.5t18 -8h80v-51h-80q-10 0 -18 -8t-8 -17.5t8 -17.5t18 -8h80v-52q0 -9 8 -17t17.5 -8t17.5 8t8 17v52h77
q9 0 17 8t8 17.5t-8 17.5t-17 8h-77v51h70z" />
    <glyph glyph-name="dingdan" unicode="&#xe627;" 
d="M883 835h-89q-11 0 -18.5 -7t-7.5 -18q0 -26 26 -26h89q19 0 33.5 -14.5t14.5 -33.5v-714q0 -19 -14.5 -33.5t-33.5 -14.5h-736q-19 0 -33.5 14.5t-14.5 33.5v714q0 19 14.5 33.5t33.5 14.5h99q11 0 18.5 7t7.5 19q0 25 -26 25h-99q-41 0 -68.5 -27.5t-27.5 -68.5v-713
q0 -41 27.5 -68.5t68.5 -27.5h736q41 0 68.5 27.5t27.5 68.5v713q0 40 -28.5 68t-67.5 28zM394 787h240q10 0 17.5 7t7.5 19q0 25 -25 25h-240q-11 0 -18.5 -7t-7.5 -18.5t7.5 -18.5t18.5 -7zM294 550h464q11 0 18.5 7.5t7.5 18.5q0 26 -26 26h-464q-10 0 -17.5 -7.5
t-7.5 -18.5q0 -26 25 -26zM294 355h464q11 0 18.5 7t7.5 19q0 25 -26 25h-464q-10 0 -17.5 -7t-7.5 -18q0 -26 25 -26zM294 160h464q11 0 18.5 7t7.5 19q0 25 -26 25h-464q-10 0 -17.5 -7t-7.5 -18q0 -26 25 -26z" />
    <glyph glyph-name="dizhi" unicode="&#xe628;" 
d="M518 848q-105 0 -195 -52.5t-142.5 -143.5t-52.5 -198q0 -63 42 -156q36 -74 118 -183q32 -38 109 -121l35 -36q2 -2 5.5 -5t5.5 -4.5t2 -2.5v0q29 -29 70 -29t67 29v0h1l1 1l1 1v1h1l1 1l1 1l1 1v1h1l1 1l1 1l1 1l1 1l1 1l35 36q39 38 109 121q79 94 119 183
q41 83 41 156q4 80 -25 153.5t-81 126t-124 83.5t-151 31zM822 320q-38 -82 -115 -173q-70 -83 -105 -118l-36 -35l-1 -2l-1 -1l-1 -1l-1 -1l-2 -1l-1 -1l-1 -2l-1 -1l-1 -1l-1 -1l-1 -1q-15 -15 -35.5 -15t-35.5 15v0l-1 1l-1 1v0l-1 1l-1 1l-1 1l-2 2l-1 1l-1 1l-1 1v0
l-1 1l-2 2l-35 35q-6 7 -32.5 35t-42.5 46t-30 37q-72 91 -116 173q-38 77 -38 134q0 95 46 174.5t124.5 125.5t171.5 46t172 -46t125 -125.5t46 -174.5q0 -57 -39 -134zM518.5 634q-71.5 0 -120.5 -50.5t-49 -122.5t50 -122.5t119.5 -50.5t119.5 50.5t50 122.5t-49 122.5
t-120.5 50.5zM518.5 339q-50.5 0 -86 36t-35.5 89t35.5 89t86 36t86 -36t35.5 -89t-35.5 -89t-86 -36z" />
    <glyph glyph-name="mianbaoxie" unicode="&#xe629;" 
d="M875 412q10 9 23 9t22 -10l5 -5q9 -9 9 -22t-9 -22l-438 -431q-9 -9 -22 -9t-22 9l-6 6q-9 9 -9 22t10 22zM875 412zM875 356l-437 431q-10 9 -10 22t9 22l6 6q9 9 22 9t22 -9l438 -431q9 -9 9 -22t-9 -22l-5 -5q-9 -10 -22 -10t-23 9v0zM875 356zM537 412q9 9 22 9
t22 -10l6 -5q9 -9 9 -22t-10 -22l-437 -431q-10 -9 -23 -9t-22 9l-5 6q-9 9 -9 22t9 22zM537 412zM537 356l-438 431q-9 9 -9 22t9 22l5 6q9 9 22 9t23 -9l437 -431q10 -9 10 -22t-9 -22l-6 -5q-9 -10 -22 -10t-22 9v0zM537 356z" />
    <glyph glyph-name="yijian" unicode="&#xe62b;" 
d="M874 621q-12 0 -19 -8t-7 -18v-550q0 -22 -15 -36.5t-36 -14.5h-643q-22 0 -37 14.5t-15 36.5v646q0 22 15 36.5t37 14.5h521q12 0 19 8t7 18t-8 18t-18 8h-521q-43 0 -74.5 -31t-31.5 -72v-646q0 -43 31 -73t75 -30h643q43 0 74 30t31 73v550q-5 26 -28 26zM483 534
h-278q-12 0 -19 -7.5t-7 -17.5t8 -18t18 -8h278q12 0 19 8t7 18q0 11 -8 18t-18 7zM179 329.5q0 -9.5 8 -17.5t18 -8h461q11 0 18 7.5t7 18.5q0 9 -8 17t-17 8h-461q-10 0 -18 -8t-8 -17.5zM969.5 838.5q-7.5 7.5 -18 7.5t-20.5 -8l-326 -323q-7 -7 -7 -17.5t7 -17.5t18 -7
t20 7l327 323q7 7 7 17.5t-7.5 18z" />
    <glyph glyph-name="fankui" unicode="&#xe62c;" 
d="M883 813h-742q-38 0 -65.5 -27t-27.5 -63v-582q0 -36 27.5 -63t65.5 -27h256q6 -6 16 -19q6 -6 9 -13q7 -9 10 -13q23 -35 42 -51t44 -16q26 0 47 16.5t43 50.5l29 45h249q39 0 66 27t27 63v582q-2 39 -29.5 64.5t-66.5 25.5zM931 141q0 -19 -12.5 -32t-32.5 -13h-252
q-10 0 -16 -3q-20 -13 -29 -29q-3 -6 -23 -35v0q-26 -45 -48 -45q-16 0 -48 45q-1 1 -2.5 4.5t-3.5 6t-3 2.5q-3 6 -10 12q-16 21 -27 30t-27 9h-256q-19 0 -32 12.5t-13 32.5v582q0 19 14 32t34 13h742q20 0 34 -13t14 -32v-579h-3zM221 413q0 21 15 36t36 15t36 -15
t15 -36t-15 -36t-36 -15t-36 15t-15 36zM461 413q0 21 15 36t36 15t36 -15t15 -36t-15 -36t-36 -15t-36 15t-15 36zM698 413q0 21 15 36t36 15t36 -15t15 -36t-15 -36t-36 -15t-36 15t-15 36z" />
    <glyph glyph-name="hongbao" unicode="&#xe62d;" 
d="M866 794v0v0q-31 40 -78 40h-574q-42 0 -70.5 -28.5t-28.5 -70.5v-699q0 -41 28.5 -70t70.5 -29h574q42 0 70.5 29t28.5 70v699q0 37 -21 59zM788 784q9 0 13 -3l-292 -186l-314 186q7 3 19 3h574zM838 33q0 -21 -14.5 -35t-35.5 -14h-574q-21 0 -35.5 14t-14.5 35v699v6
l332 -196q11 -7 25 0l317 202q0 -2 1.5 -6.5t1.5 -5.5v-699h-3zM639 334q10 0 17.5 8t7.5 17t-7.5 17t-17.5 8h-84l72 71q7 7 7 17.5t-7 17t-17 6.5t-17 -6l-81 -81h-3v0l-78 77q-7 7 -17 7t-17 -7t-7 -17t7 -17l68 -68h-74q-9 0 -17 -8t-8 -17t8 -17t17 -8h93v-74h-93
q-9 0 -17 -8t-8 -17t8 -17t17 -8h93v-90q0 -9 8 -17t17 -8t17 8t8 17v90h108q10 0 17.5 8t7.5 17t-7.5 17t-17.5 8h-108v74h105z" />
    <glyph glyph-name="jiangbei" unicode="&#xe62e;" 
d="M627 385l-120 52l-125 -45l19 126l-88 111l133 14l70 125l64 -129l130 -22l-92 -105zM509 482l72 -32l-5 76l55 63l-78 13l-39 78l-42 -76l-80 -8l52 -66l-11 -76zM247 447q-61 0 -104.5 43.5t-43.5 105.5v158h148v-41h-107v-117q0 -45 31.5 -76.5t75.5 -31.5v-41z
M779 447v41q44 0 75.5 31.5t31.5 76.5v117h-107v41h147v-158q0 -62 -43 -105.5t-104 -43.5zM506.5 193q-121.5 0 -207.5 86t-86 207v344h587v-344q0 -121 -86 -207t-207.5 -86zM254 789v-303q0 -104 74 -178t178.5 -74t178.5 74t74 178v303h-505zM492 227h41v-89h-41v89z
M698 -63l-185 173l-185 -173v336h40v-242l145 135l144 -135v249h41v-343z" />
    <glyph glyph-name="xiaoxi" unicode="&#xe62f;" 
d="M586 -10v0q35 45 41 45q156 29 251 138.5t95 258.5q1 112 -60.5 205.5t-168 147t-232.5 53.5t-233 -53.5t-169 -147t-62 -205.5q0 -149 96 -258.5t250 -138.5q5 0 41 -45v0q27 -35 42.5 -49.5t31.5 -14.5q15 0 30.5 14t46.5 50zM621 93q-14 -2 -26 -14.5t-41 -49.5v0
l-42 -45l-10 10q-6 6 -25 32q-32 40 -44.5 52.5t-26.5 14.5q-138 24 -222.5 119.5t-84.5 225.5q0 95 55.5 176t151.5 128.5t209 47.5t209 -47.5t151.5 -128.5t55.5 -176q-2 -132 -86.5 -226.5t-223.5 -118.5zM282 425.5q0 19.5 13 34t31.5 14.5t31.5 -14.5t13 -34t-13 -33.5
t-31.5 -14t-31.5 14t-13 33.5zM467 425.5q0 19.5 13 34t32 14.5t32 -14.5t13 -34t-13 -33.5t-32 -14t-32 14t-13 33.5zM653 425.5q0 19.5 13 34t31.5 14.5t31.5 -14.5t13 -34t-13 -33.5t-31.5 -14t-31.5 14t-13 33.5z" />
    <glyph glyph-name="xingping" unicode="&#xe630;" 
d="M961 477.5q-6 19.5 -27 22.5l-286 33l-110 249q-7 15 -23 18v0v0v0v0q-17 -3 -23 -18l-111 -249l-286 -33q-20 -3 -26.5 -22.5t8.5 -33.5l213 -193l-63 -259q-5 -20 11 -33q8 -7 20 -7q7 0 14 3l243 119l243 -119q6 -3 14 -3q11 0 20 7q16 13 11 33l-63 259l212 193
q15 14 9 33.5zM597 491z" />
    <glyph glyph-name="shanchu" unicode="&#xe631;" 
d="M944 704h-189v45q0 41 -29 70t-70 29h-294q-41 0 -70.5 -29t-29.5 -70v-45h-179q-10 0 -17.5 -7t-7.5 -19q0 -10 7 -17.5t18 -7.5h61v0v-634q0 -41 29 -70t70 -29h551q40 0 69.5 29t29.5 70v631v3h51q10 0 18 7t8 18q-7 26 -26 26zM317 749q0 19 14.5 33.5t33.5 14.5h294
q19 0 33.5 -14.5t14.5 -33.5v-45h-390v45zM842 29q0 -23 -12 -40.5t-30 -17.5h-550q-21 0 -38 13.5t-17 31.5l3 637h644v0v-624zM368 515q-26 0 -26 -25v-343q0 -11 8 -18t18 -7t18 7t8 18v343q-7 25 -26 25zM528 515q-26 0 -26 -25v-343q0 -11 8 -18t18 -7t18 7t8 18v343
q-7 25 -26 25zM688 515q-26 0 -26 -25v-343q0 -11 8 -18t18 -7t18 7t8 18v343q-7 25 -26 25z" />
    <glyph glyph-name="anquan" unicode="&#xe632;" 
d="M267 364l57 46l114 -85l18.5 18.5t47 44t70.5 61t83.5 62t91.5 54.5l22 -24q-8 -7 -21.5 -19t-51.5 -50.5t-72.5 -79t-75 -101t-68.5 -118.5zM202 687v-370q0 -19 0.5 -31.5t7 -40.5t17.5 -49.5t34 -52.5t55.5 -57.5t83.5 -56.5t116 -55q65 25 116.5 55t83.5 56.5
t55.5 57.5t34.5 52.5t17 49.5t6.5 40.5t0.5 31.5v370q-80 0 -149.5 18.5t-103.5 37t-61 39.5q-26 -21 -60 -39.5t-104 -37t-150 -18.5zM516 -86l-10 4q-93 36 -161 79t-105 82.5t-59 85t-28.5 79.5t-6.5 73v427l29 -1q63 -2 119.5 7.5t90.5 22t62 29.5t36.5 24.5t12.5 11.5
l20 22l21 -22q4 -5 11 -11t34 -22.5t58 -29t83.5 -22.5t109.5 -10v0h24l29 1v-427q0 -39 -6 -73t-28 -79.5t-59.5 -85t-105.5 -82.5t-161 -79z" />
    <glyph glyph-name="kulian" unicode="&#xe600;" 
d="M513 -92q-97 0 -185.5 38t-152 102t-101.5 152t-38 185t38 185.5t101.5 152t152 101.5t185.5 38t185 -38t152 -101.5t102 -152t38 -185.5t-38 -185t-102 -152t-152 -102t-185 -38zM513 794q-111 0 -205 -55t-149 -149t-55 -205t55 -205t149 -148.5t205 -54.5t205 54.5
t148.5 148.5t54.5 205t-54.5 205t-148.5 149t-205 55zM291 557q0 -23 16 -39.5t39.5 -16.5t39.5 16.5t16 39.5v0q0 23 -16 39.5t-39.5 16.5t-39.5 -16.5t-16 -39.5v0zM635 557q0 -23 16.5 -39.5t39.5 -16.5t39.5 16.5t16.5 39.5t-16.5 39.5t-39.5 16.5t-39.5 -16.5
t-16.5 -39.5zM729 145q-16 0 -26 13q-91 110 -187 108q-29 -1 -58 -12.5t-48.5 -25.5t-38.5 -32t-24.5 -25t-9.5 -11q-8 -12 -22 -14t-25.5 6t-13.5 22t6 25q5 7 12.5 16.5t31 32t48.5 39.5t63 31.5t76 16.5q128 5 242 -134q9 -11 8 -25t-12 -23q-10 -8 -22 -8z" />
    <glyph glyph-name="xiaolian" unicode="&#xe634;" 
d="M198.5 -75q-55.5 0 -95 39.5t-39.5 95t39.5 95t95 39.5t95 -39.5t39.5 -95t-39.5 -95t-95 -39.5zM199 144q-35 0 -60 -24.5t-25 -59.5t25 -60t60 -25t60 25t25 60t-25 59.5t-60 24.5zM820.5 -75q-55.5 0 -95 39.5t-39.5 95t39.5 95t95 39.5t95 -39.5t39.5 -95t-39.5 -95
t-95 -39.5zM821 144q-35 0 -60 -24.5t-25 -59.5t25 -60t60 -25t60 25t25 60t-25 59.5t-60 24.5zM515 143q-46 0 -81 12.5t-52 28.5t-28.5 36t-13.5 29t-2 14q-1 10 5.5 18t16.5 9t18 -5.5t9 -16.5q1 -4 2.5 -9.5t9.5 -18.5t20.5 -22.5t38 -17t58 -7.5t58 7.5t37.5 17.5
t20.5 22.5t10 18t1.5 9.5q1 9 8.5 15.5t16.5 6.5h3q10 -2 16.5 -9.5t5.5 -17.5q-1 -6 -3 -14t-13 -28.5t-28 -36.5t-52.5 -28.5t-81.5 -12.5zM768 476q-9 0 -16.5 6t-8.5 16q-3 24 -14 49.5t-27 25.5t-26.5 -25.5t-12.5 -49.5q-1 -10 -9 -16.5t-18.5 -5.5t-17 9t-5.5 18
q2 26 10.5 51.5t29 47t49 21.5t49.5 -21.5t30 -46.5t12 -51q1 -11 -5.5 -19t-16.5 -9h-3zM430 476q-10 0 -17 6t-8 16q-3 24 -14.5 49.5t-27.5 25.5t-26.5 -25.5t-12.5 -49.5q-1 -10 -9 -16.5t-18 -5.5t-16.5 9t-5.5 18q2 26 10.5 51.5t29 47t49 21.5t49 -21.5t29.5 -46.5
t12 -51q2 -11 -4.5 -19t-16.5 -9h-3zM686 38q0 8 1 17q-84 -42 -177.5 -42t-177.5 42q1 -9 1 -17q0 -18 -5 -36q87 -39 182 -39t181 39q-5 18 -5 36zM192 173q-78 104 -78 235q0 107 53 198t144 144t198.5 53t198.5 -53t144.5 -144t53.5 -198q0 -131 -79 -235q28 -2 52 -13
q76 112 76 248q0 90 -35 172.5t-95 142t-142.5 94.5t-173 35t-173 -35t-142 -94.5t-95 -142t-35.5 -172.5q0 -136 76 -248q25 11 52 13z" />
    <glyph glyph-name="cuowu" unicode="&#xe635;" 
d="M547 384l416 416q7 7 7 17.5t-7 17.5t-17.5 7t-17.5 -7l-416 -416l-416 416q-7 7 -17.5 7t-17.5 -7t-7 -17.5t7 -17.5l416 -416l-416 -416q-7 -7 -7 -17.5t7 -17.5t17.5 -7t17.5 7l416 416l416 -416q7 -7 17.5 -7t17.5 7t7 17.5t-7 17.5z" />
    <glyph glyph-name="zhengque" unicode="&#xe636;" 
d="M970 688q-8 7 -18 7t-18 -7l-508 -538q-15 -14 -34.5 -14.5t-36.5 11.5l-265 253q-8 7 -18 7t-17.5 -7t-7.5 -17.5t7 -17.5l266 -253q29 -28 70 -27t68 30l508 538q10 7 10.5 17.5t-6.5 17.5z" />
    <glyph glyph-name="zantong" unicode="&#xe637;" 
d="M882 539q-10 3 -25 5t-41 3t-44.5 1.5t-62 1.5t-65.5 2q7 32 7 92q0 74 -44.5 132t-94.5 58q-34 0 -59 -24.5t-25 -59.5q-1 -24 -5.5 -49t-15.5 -54.5t-34.5 -56t-57.5 -44.5q-19 -10 -29 -14l1 -2q-26 23 -56 23h-85q-35 0 -59.5 -25t-24.5 -60v-450q0 -35 24.5 -59.5
t59.5 -24.5h85q24 0 44 13.5t31 35.5l1 -1q1 0 3.5 -0.5t3.5 -1.5h1v0q32 -8 114 -27q85 -19 168 -19h154q71 0 101 54q7 14 12 30q7 24 0 50q31 21 47 73q13 43 0 76q29 28 37 78q6 36 -11 67q23 25 24 61l1 6v14q0 30 -20.5 57.5t-59.5 38.5zM259 18q0 -11 -8.5 -19.5
t-19.5 -8.5h-85q-11 0 -19.5 8.5t-8.5 19.5v450q0 12 8.5 20t19.5 8h85q11 0 19.5 -8t8.5 -20v-450zM905 425q-2 -41 -55 -41h-57q-6 0 -10 -4t-4 -10t4 -10t10 -4h55q28 0 38 -17t7 -35q-10 -61 -61 -61h-67q-6 0 -10 -4t-4 -9.5t4 -10t10 -4.5h56q21 0 31.5 -10t8.5 -23
t-4 -25q-5 -15 -7.5 -21t-10 -16t-21.5 -13.5t-35 -3.5h-46q-6 0 -10 -4t-4 -10t4 -10t10 -4h44q20 0 26.5 -14t2.5 -26q-2 -7 -8 -20q-14 -25 -51 -25h-154q-77 0 -156 18q-110 26 -130 31q-3 1 -7 2t-10.5 7.5t-6.5 15.5v389q0 22 22 29q1 0 3 1t3 1q46 19 80 50
t52.5 67.5t27 73t9.5 75.5q0 11 8 19.5t20 8.5q25 0 53.5 -41t28.5 -93q0 -49 -4 -71.5t-22 -76.5q134 0 199.5 -1.5t76.5 -3t28 -5.5q34 -10 34 -43q0 -1 -1 -18zM188.5 103q-17.5 0 -30 -12.5t-12.5 -30t12.5 -30t30 -12.5t30 12.5t12.5 30t-12.5 30t-30 12.5zM188.5 46
q-5.5 0 -10 4.5t-4.5 10t4.5 10t10 4.5t10 -4.5t4.5 -10t-4.5 -10t-10 -4.5z" />
    <glyph glyph-name="fandui" unicode="&#xe638;" 
d="M142 229q10 -3 25 -5t41 -3t44.5 -1.5t62 -1.5t65.5 -2q-7 -32 -7 -92q0 -74 44.5 -132t94.5 -58q34 0 59 24.5t25 59.5q1 24 5.5 49t15.5 54.5t34.5 56t57.5 44.5q19 10 29 14l-1 2q26 -23 56 -23h85q34 0 59 25t25 60v450q0 34 -25 59t-59 25h-85q-24 0 -44 -13.5
t-31 -35.5l-1 1q-1 0 -3.5 0.5t-3.5 0.5q0 1 -0.5 1h-0.5q-32 8 -114 27q-85 19 -168 19h-154q-70 0 -101 -54q-7 -14 -12 -31q-7 -23 0 -49q-31 -21 -47 -73q-13 -43 0 -76q-29 -28 -37 -78q-6 -36 11 -67q-23 -25 -24 -61l-1 -6v-14q0 -30 20.5 -57.5t59.5 -38.5zM765 750
q0 11 8.5 19.5t19.5 8.5h85q11 0 19.5 -8.5t8.5 -19.5v-450q0 -12 -8.5 -20.5t-19.5 -8.5h-85q-11 0 -19.5 8.5t-8.5 20.5v450zM119 343q2 41 56 41h56q6 0 10 4t4 10t-4 10t-10 4h-55q-28 0 -38 17t-7 35q10 61 61 61h67q6 0 10 4t4 9.5t-4 10t-10 4.5h-55q-22 0 -32.5 10
t-8.5 23t4 25q5 15 7.5 20.5t10 16t21.5 14t35 3.5h46q6 0 10 4t4 10t-4 10t-10 4h-44q-20 0 -26 14t-3 26q2 7 8 20q14 25 51 25h154q77 0 156 -18q110 -26 130 -31q3 -1 7 -2t10.5 -7.5t6.5 -15.5v-389q0 -22 -22 -29q-1 0 -3 -1t-3 -1q-46 -19 -80 -50t-52.5 -67.5
t-27 -73t-9.5 -75.5q0 -11 -8 -19.5t-20 -8.5q-25 0 -53.5 41t-28.5 93q0 49 4 71.5t22 75.5q-134 0 -199.5 2t-76.5 3.5t-28 5.5q-34 10 -34 43q0 1 1 18zM835.5 665q17.5 0 30 12.5t12.5 30t-12.5 30t-30 12.5t-30 -12.5t-12.5 -30t12.5 -30t30 -12.5zM835.5 721
q5.5 0 9.5 -4t4 -9.5t-4 -10t-9.5 -4.5t-10 4.5t-4.5 10t4.5 9.5t10 4z" />
    <glyph glyph-name="lianjie" unicode="&#xe639;" 
d="M589 465l-10 6q-7 7 -17 6t-15 -9q-7 -7 -5.5 -17t8.5 -15l10 -6q14 -12 14.5 -30t-11.5 -34l-13 -16q-7 -8 -5.5 -17.5t9.5 -14.5q7 -7 17 -5.5t15 8.5l12 16q25 29 22 66.5t-31 61.5zM448 219l-141 -176q-12 -14 -30.5 -17t-30.5 7l-137 112q-14 12 -15 29.5t12 34.5
l265 326q12 15 30.5 17.5t30.5 -7.5l13 -10q7 -6 17 -5t15 9q7 7 5.5 17t-8.5 15l-13 9q-29 24 -66.5 19t-61.5 -35l-266 -326q-24 -29 -21.5 -66.5t31.5 -61.5l137 -112q30 -24 67 -18.5t61 34.5l141 176q7 7 5.5 17t-8.5 15q-14 14 -32 -3zM944 663l-128 106
q-31 24 -69 20t-62 -33l-263 -326q-23 -31 -19.5 -69t32.5 -62l128 -106q32 -24 69.5 -20t61.5 33l263 326q26 32 22 69.5t-35 61.5zM922 561l-263 -326q-12 -15 -31 -17t-36 10l-128 106q-14 12 -16 31t10 36l262 326q12 15 31 17t36 -10l128 -106q15 -12 17 -31t-10 -36z
" />
    <glyph glyph-name="wancheng" unicode="&#xe63a;" 
d="M486 266q-14 -15 -33.5 -15.5t-33.5 11.5l-137 132l-32 -36l137 -131q29 -26 67.5 -25.5t67.5 28.5l281 298l-35 32zM512 845q-93 0 -178.5 -36.5t-147 -98t-98.5 -147t-37 -179.5t36.5 -179.5t98 -147t147 -98t179.5 -36.5t179.5 36.5t147 98t98 147t36.5 179.5
t-37 179.5t-98.5 147t-147 98t-178.5 36.5zM512 -29q-112 0 -207 55.5t-150.5 150.5t-55.5 207t55.5 207t150.5 150.5t207 55.5t207 -55.5t150.5 -150.5t55.5 -207t-55.5 -207t-150.5 -150.5t-207 -55.5z" />
    <glyph glyph-name="shijian" unicode="&#xe63b;" 
d="M512 832q-94 0 -179.5 -36.5t-147 -98.5t-98 -147.5t-36.5 -178.5t37 -178t98.5 -147t147 -99t178.5 -37t178.5 37t147 99t98.5 147t37 178t-36.5 178.5t-98 147.5t-147 98.5t-179.5 36.5zM512 -45q-112 0 -207 55.5t-150.5 150.5t-55.5 207t55.5 207t150.5 150.5
t207 55.5t207 -55.5t150.5 -150.5t55.5 -207t-55 -207t-150 -150.5t-208 -55.5zM810 352h-279v282q0 9 -6.5 15.5t-16 6.5t-16 -6.5t-6.5 -15.5v-308q0 -9 6.5 -15.5t16.5 -6.5h3h298q9 0 15.5 6.5t6.5 15.5q0 12 -6.5 19t-15.5 7z" />
    <glyph glyph-name="liwu" unicode="&#xe63c;" 
d="M925 73v307q35 20 35 61v78q0 29 -20.5 49.5t-50.5 20.5h-92l6 4q68 42 80 82q13 46 -39 77q-56 32 -142 12q-55 -13 -121 -49q-32 -17 -63 -38q-7 -4 -13 -9q-11 10 -21 19q-96 79 -178 89q-74 9 -129 -37l-3 -3l-4 -4q-53 -68 27 -143h-60q-29 0 -49.5 -20.5
t-20.5 -49.5v-78q0 -41 35 -61v-307q0 -38 27.5 -65.5t66.5 -27.5h635q39 0 66.5 27.5t27.5 65.5zM604 674q60 32 109 44q67 16 107 -7q21 -12 17 -23q-6 -22 -59 -55q-21 -13 -47 -26q-13 -6 -21 -9q-6 -3 -10 -9h-122q-1 5 -4 9q-2 3 -7 8q-8 10 -18 20l-9 9q2 2 4 3
q30 20 60 36zM273 592q-5 2 -12 7q-15 10 -28 21q-53 48 -26 83h1v1q40 31 92 25q69 -8 154 -79q31 -25 61 -56q2 -2 4 -5h-243q-1 2 -3 3zM114 519q0 10 6.5 17t16.5 7h752q10 0 17 -7t7 -17v-78q0 -10 -6 -16h-6h-776h-5q-6 7 -6 16v78zM196 27q-20 0 -33.5 13.5
t-13.5 32.5v297h729v-297q0 -19 -14 -32.5t-33 -13.5h-635z" />
    <glyph glyph-name="yuyin" unicode="&#xe63d;" 
d="M827.5 444.5q-9.5 0.5 -17 -6t-7.5 -15.5q0 -5 -1 -13q-2 -17 -6 -35q-11 -58 -36 -107q-76 -150 -248 -150t-248 150q-25 49 -36 107q-4 18 -6 35q-1 8 -1 13q0 9 -7.5 15.5t-17 6t-16 -7.5t-6.5 -17q1 -22 8 -54q13 -65 40 -119q82 -163 265 -175v-85h-196
q-10 0 -16.5 -7t-6.5 -17t6.5 -16.5t16.5 -6.5h442q10 0 17 6.5t7 16.5t-7 17t-17 7h-199v85q185 10 268 175q27 54 40 119q7 32 8 54q0 10 -6.5 17t-16 7.5zM510 196q80 0 137 56.5t57 136.5v246q0 80 -57 136.5t-137 56.5t-136.5 -56.5t-56.5 -136.5v-246
q0 -80 56.5 -136.5t136.5 -56.5zM364 635q0 61 43 103.5t103.5 42.5t103.5 -42.5t43 -103.5v-246q0 -60 -43 -103t-103.5 -43t-103.5 42.5t-43 103.5v246z" />
    <glyph glyph-name="guanbi" unicode="&#xe63e;" 
d="M928 -77q-25 0 -33 8l-832 832q-7 13 -7 29.5t6.5 29t26 12.5t32.5 -13l832 -832q13 -12 13 -29t-13 -29q0 -8 -25 -8zM96 -77q-25 0 -33 8q-13 12 -13 29t13 29l832 832q12 13 29 13t29.5 -12.5t12.5 -29t-13 -29.5l-832 -832q0 -8 -25 -8z" />
    <glyph glyph-name="gouwuche" unicode="&#xe63f;" 
d="M246 -16q0 -28 20 -47.5t47.5 -19.5t47.5 19.5t20 47.5t-20 47.5t-47.5 19.5t-47.5 -19.5t-20 -47.5zM717 -16q0 -28 19.5 -47.5t47.5 -19.5t47.5 19.5t19.5 47.5t-19.5 47.5t-47.5 19.5t-47.5 -19.5t-19.5 -47.5zM906 131h-538q-21 0 -40 16.5t-24 38.5l-96 566
q-7 41 -40.5 68.5t-74.5 27.5h-23q-9 0 -17 -8t-8 -17.5t8 -17.5t17 -8h23q21 0 40 -16.5t24 -38.5l96 -566q7 -41 40.5 -68.5t74.5 -27.5h538q9 0 17 8t8 18t-7 17.5t-18 7.5zM880 717h-573q-9 0 -17 -8t-8 -17.5t8 -17.5t17 -8h573q19 0 28 -11.5t4 -30.5l-70 -282
q-5 -23 -27 -40.5t-47 -19.5l-397 -29q-10 0 -17.5 -8.5t-4.5 -20.5q0 -10 8.5 -17.5t20.5 -4.5l396 28q41 3 75 32t44 68l70 281q10 41 -15 73.5t-68 32.5z" />
    <glyph glyph-name="zhaoxiangji" unicode="&#xe641;" 
d="M512 608q-94 0 -159 -65t-65 -159t65 -159t159 -65t159 65t65 159t-65 159t-159 65zM512 208q-72 0 -124 52t-52 124t52 124t124 52t124 -52t52 -124t-52 -124t-124 -52zM768 525q0 -21 15 -36t36 -15t36 15t15 36t-15 36t-36 15t-36 -15t-15 -36zM864 672h-96l-22 67
q-5 12 -17.5 20.5t-24.5 8.5h-384q-14 0 -25.5 -8t-16.5 -21l-22 -67h-96q-41 0 -68.5 -27.5t-27.5 -68.5v-448q0 -40 28.5 -68t67.5 -28h704q41 0 68.5 27.5t27.5 68.5v448q0 41 -27.5 68.5t-68.5 27.5zM912 128q0 -19 -14.5 -33.5t-33.5 -14.5h-704q-19 0 -33.5 14.5
t-14.5 33.5v448q0 19 14.5 33.5t33.5 14.5h96h35l10 32l22 64h378l22 -64l10 -32h35h96q19 0 33.5 -14.5t14.5 -33.5v-448z" />
    <glyph glyph-name="erweima" unicode="&#xe642;" 
d="M384 832h-250q-37 0 -63 -26.5t-26 -63.5v-227q0 -38 26.5 -63.5t62.5 -25.5h250q38 0 64 26.5t26 62.5v227q0 37 -26 63.5t-64 26.5zM429 515q0 -19 -13 -32t-32 -13h-250q-19 0 -31.5 13t-12.5 32v227q0 20 12.5 32.5t31.5 12.5h250q19 0 32 -12.5t13 -32.5v-227z
M192 704h134v-134h-134v134zM378 352h-244q-36 0 -61 -25.5t-25 -64.5v-220q0 -37 25.5 -63.5t60.5 -26.5h244q36 0 61 25.5t25 64.5v220q2 38 -24 64t-62 26zM422 45q0 -19 -12.5 -32t-31.5 -13h-244q-19 0 -31.5 13t-12.5 32v221q0 19 12.5 31.5t31.5 12.5h244
q19 0 31.5 -12.5t12.5 -31.5v-221zM192 227h131v-131h-131v131zM634 426h249q38 0 64 26.5t26 62.5v227q0 38 -26.5 64t-63.5 26h-249q-38 0 -64 -26.5t-26 -63.5v-227q0 -38 26.5 -63.5t63.5 -25.5zM589 742q0 20 12.5 32.5t32.5 12.5h249q19 0 32 -12.5t13 -32.5v-227
q0 -19 -13 -32t-32 -13h-249q-20 0 -32.5 13t-12.5 32v227zM701 704h134v-134h-134v134zM573 179h137q10 0 16.5 6.5t6.5 16.5v137q0 10 -6.5 16.5t-16.5 6.5h-137q-10 0 -16.5 -6.5t-6.5 -16.5v-137q0 -10 6.5 -16.5t16.5 -6.5zM886 333v-39q0 -9 8 -17t18 -8h38q10 0 18 8
t8 17v39q0 9 -8 17t-18 8h-38q-10 0 -18 -7t-8 -18zM582 -48h48q10 0 16.5 6.5t6.5 15.5v48q0 10 -6.5 16.5t-16.5 6.5h-48q-9 0 -15.5 -6.5t-6.5 -16.5v-48q0 -9 6.5 -15.5t15.5 -6.5zM944 192h-99q-12 0 -20.5 -8.5t-8.5 -20.5v-45h-48q-14 0 -23 -8.5t-9 -23.5v-99
q0 -12 8.5 -20.5t20.5 -8.5l179 -3q12 0 20.5 8.5t8.5 20.5v179q0 12 -8.5 20.5t-20.5 8.5z" />
    <glyph glyph-name="lingcunwei" unicode="&#xe643;" 
d="M931 429q-9 0 -15.5 -6.5t-6.5 -16.5v-329q0 -17 -12.5 -29.5t-29.5 -12.5h-733q-16 0 -28.5 12.5t-12.5 29.5v563q0 17 12.5 29.5t28.5 12.5h295q9 0 15.5 6t6.5 16t-6.5 16t-15.5 6h-295q-36 0 -62.5 -25.5t-26.5 -63.5v-563q0 -37 26 -63.5t63 -26.5h733q37 0 63.5 26
t26.5 64v329q0 10 -7 18t-19 8zM970 630l-96 109q-14 14 -36 3q-13 -13 -3 -35l48 -57q-112 0 -224 -52q-212 -101 -259 -371q-2 -9 3.5 -17.5t15.5 -11.5q10 -2 18.5 4t10.5 16q41 244 230 336q62 31 148 41q51 7 73 3l-83 -73q-14 -14 -3 -35q14 -14 35 -4l115 100
q23 28 7 44z" />
    <glyph glyph-name="naozhong" unicode="&#xe644;" 
d="M931 378q0 114 -56.5 211t-152.5 152.5t-210 55.5q-115 0 -211.5 -56.5t-152 -153t-55.5 -209.5q0 -102 45.5 -189.5t123.5 -146.5l-57 -52q-8 -7 -9 -17t6 -18q7 -7 17 -8.5t18 5.5l70 58q94 -55 208 -55q118 0 215 61l3 -3l73 -61q8 -7 18 -5.5t18 8.5q6 8 5 18t-9 17
l-64 55q72 59 114.5 146.5t42.5 186.5zM512 6q-101 0 -186.5 50t-135 135.5t-49.5 186t49.5 186t135 135.5t186.5 50t186.5 -50t135 -135.5t49.5 -186t-49.5 -186t-135 -135.5t-186.5 -50zM208 800q-7 7 -17.5 7t-17.5 -7l-119 -118q-7 -8 -7 -18t7.5 -17.5t17.5 -7.5t18 7
l118 119q7 7 7 17.5t-7 17.5zM970 685l-119 115q-7 7 -17.5 7t-17.5 -7t-7 -17.5t7 -17.5l118 -115q8 -8 18 -8t17.5 7.5t7.5 18t-7 17.5zM707 595l-144 -128q0 -3 -3 -3q-26 6 -35 6q-13 0 -32 -6q0 2 -1.5 3.5t-1.5 2.5l-93 84q-7 7 -17.5 6.5t-17.5 -10.5
q-8 -7 -7.5 -17.5t10.5 -17.5l89 -80q-28 -34 -28 -70q0 -42 29.5 -72.5t72.5 -30.5q41 0 71.5 30t30.5 73q0 36 -25 67l141 125q7 7 7.5 17.5t-4.5 17.5q-25 15 -42 3zM525 314q-22 0 -36.5 14.5t-14.5 36t14.5 36.5t36 15t36.5 -15t15 -36q0 -20 -15 -35.5t-36 -15.5z" />
    <glyph glyph-name="xiafan" unicode="&#xe645;" 
d="M922 333q-8 7 -18 7t-18 -7l-342 -333v822q0 10 -7 16.5t-18.5 6.5t-18.5 -6.5t-7 -16.5v-822l-343 339q-7 7 -17.5 7t-17.5 -7q-16 -16 0 -32l384 -377q7 -7 19 -7v0h7h3q3 0 10 7l380 371q10 4 10.5 14.5t-6.5 17.5z" />
    <glyph glyph-name="shangfan" unicode="&#xe646;" 
d="M874 477l-356 361q-16 16 -32 0l-355 -368q-16 -16 0 -32q7 -7 16 -7t16 7l317 330v-829q0 -9 6.5 -15.5t16 -6.5t16 6.5t6.5 15.5v823l310 -317q16 -16 32 0q12 7 13 17t-6 15z" />
    <glyph glyph-name="saoyisao" unicode="&#xe647;" 
d="M864 848h-698q-35 0 -59 -26.5t-24 -63.5v-208q0 -10 6.5 -17.5t16.5 -7.5q9 0 15.5 7t6.5 18v208q0 18 11 30t27 12h698q17 0 27.5 -12t10.5 -30v-208q0 -10 6.5 -17.5t16.5 -7.5t16 7t6 18v208q0 36 -24.5 63t-58.5 27zM925 214q-10 0 -16.5 -6.5t-6.5 -18.5v-179
q0 -18 -10.5 -30t-27.5 -12h-698q-16 0 -27 12t-11 30v182q0 10 -6.5 18t-15.5 8q-10 0 -16.5 -7t-6.5 -19v-179q0 -38 24.5 -64t58.5 -26h698q35 0 59 26.5t24 63.5v179q0 10 -6.5 16t-15.5 6zM922 352q9 0 15.5 6.5t6.5 16t-6.5 16t-15.5 6.5h-820q-9 0 -15.5 -6.5
t-6.5 -16t6.5 -16t15.5 -6.5h820z" />
    <glyph glyph-name="sousuo" unicode="&#xe648;" 
d="M966 -29l-230 227q96 107 96 256q0 107 -52.5 197t-142.5 142t-195 52q-107 0 -197 -52.5t-142 -142.5t-52 -196t52.5 -196t142.5 -142t196 -52q149 0 256 96l230 -227q7 -7 19 -7t19 7q10 9 10 20t-10 18zM102 454.5q0 91.5 45 169.5t123.5 124t171.5 46t171 -45.5
t123 -123.5t45 -171q0 -66 -24.5 -126.5t-68.5 -106.5q-2 0 -3.5 -1.5t-2.5 -1.5q-4 -4 -4 -7q-46 -44 -106.5 -68.5t-126.5 -24.5q-93 -1 -172 44t-125 123t-46 169.5z" />
    <glyph glyph-name="shuaxin" unicode="&#xe649;" 
d="M960 266q-20 5 -32 -13q-28 -76 -85.5 -133.5t-131 -87t-158.5 -34t-169 27.5q-83 29 -147 84.5t-98.5 124.5t-42.5 147.5t22 155.5q29 75 86.5 132.5t131 87.5t158.5 34t168 -27q70 -24 128 -68.5t96 -104.5h-92q-10 0 -18 -6.5t-8 -15.5q0 -10 7 -16.5t19 -6.5h153
q10 0 18 6.5t8 16.5v140q0 10 -7 16.5t-19 6.5q-10 0 -17.5 -6.5t-7.5 -16.5v-89q-88 131 -247 189q-93 33 -187.5 28t-176 -38.5t-146.5 -98t-98 -147.5q-25 -68 -26.5 -139.5t21 -137.5t63.5 -123.5t102 -102.5t135 -70q93 -34 187.5 -28.5t176 39t146.5 97.5t98 148
q6 7 3 15.5t-13 13.5z" />
    <glyph glyph-name="tishi" unicode="&#xe64a;" 
d="M509 851q-94 0 -180 -36.5t-148.5 -99t-99 -148.5t-36.5 -180t36.5 -180t99 -148t148.5 -99t180 -37t180 37t148 99t99 148t37 180t-37 180t-99 148.5t-148 99t-180 36.5zM508.5 -29q-113.5 0 -209 55.5t-151 151.5t-55.5 209.5t55.5 209t151 151t209 55.5t209.5 -55.5
t151.5 -151t55.5 -209t-55.5 -209.5t-151.5 -151.5t-209.5 -55.5zM521.5 243q9.5 0 16 6.5t6.5 16.5v428q0 10 -6.5 16.5t-16 6.5t-16 -6.5t-6.5 -16.5v-428q-2 -8 5.5 -15.5t17 -7.5zM522 147zM486 147.5q0 -14.5 10.5 -25t25 -10.5t25 10.5t10.5 25t-10.5 24.5t-25 10
t-25 -10t-10.5 -24.5z" />
    <glyph glyph-name="jiazaizhong" unicode="&#xe64b;" 
d="M879 308q-23 0 -39.5 16t-16.5 39t16.5 39.5t39.5 16.5t39 -16.5t16 -39.5t-16 -39t-39 -16zM772 572q-19 0 -32.5 13.5t-13.5 32.5t13.5 32.5t32.5 13.5t33 -13.5t14 -32.5t-14 -32.5t-33 -13.5zM772 178q27 0 46 -19t19 -46t-19 -46t-46 -19t-46 19t-19 46t19 46t46 19
zM517.5 613q-46.5 0 -79 32.5t-32.5 79t32.5 79t79 32.5t79 -32.5t32.5 -79t-32.5 -79t-79 -32.5zM265 516q-41 0 -70.5 29t-29.5 70.5t29.5 70.5t70.5 29t70.5 -29t29.5 -70.5t-29.5 -70.5t-70.5 -29zM249 363.5q0 -38.5 -27 -66t-65.5 -27.5t-66 27.5t-27.5 66t27.5 65.5
t66 27t65.5 -27t27 -65.5zM265 192q34 0 57.5 -24t23.5 -57.5t-23.5 -57t-57.5 -23.5t-57.5 23.5t-23.5 57t23.5 57.5t57.5 24zM520 76q30 0 51 -21t21 -51t-21 -51t-51 -21t-51 21t-21 51t21 51t51 21z" />
    <glyph glyph-name="shangchuantupian" unicode="&#xe64c;" 
d="M915 176h-105v105q0 17 -11.5 29t-29 12t-29 -12t-11.5 -29v-111h-117q-17 0 -29 -11.5t-12 -29t12 -29t29 -11.5h111v-111q0 -17 11.5 -29t29 -12t29 12t11.5 29v111h111q18 0 29.5 11.5t11.5 29.5q4 17 -9.5 31.5t-31.5 14.5v0v0zM506 70v0h-364q-10 0 -17 7t-7 17v662
q0 10 7 17t17 7h646q10 0 17 -7t7 -17v-358v0v0q0 -10 6.5 -16.5t17 -6.5t17 6.5t6.5 16.5v0v0v382q0 20 -15 35.5t-36 15.5h-690q-20 0 -35.5 -15.5t-15.5 -35.5v-710q0 -20 15.5 -35t35.5 -15h388v0q11 0 17.5 6.5t6.5 16.5q0 13 -6.5 20t-17.5 7v0v0zM501 188
q13 26 41 42t58 16h47v52q0 35 19.5 63.5t50.5 41.5v0v0l-58 175l-204 -262l-58 93l-216 -221h320v0v0zM397 561q0 26 -19 45t-45.5 19t-45.5 -19t-19 -45.5t19 -45t45.5 -18.5t45.5 18.5t19 45.5v0v0zM397 561z" />
    <glyph glyph-name="shoucang" unicode="&#xe64d;" 
d="M511 716q-77 73 -182 73q-110 0 -188 -77.5t-78 -187.5q0 -56 25 -116.5t64.5 -113t87 -103t95 -90t87 -69t64.5 -46t25 -15.5q9 6 25 16.5t62.5 45t89 70t94 88.5t88.5 104t62.5 112t25.5 117q0 110 -77.5 187.5t-187.5 77.5q-106 0 -182 -73z" />
    <glyph glyph-name="suo" unicode="&#xe64e;" 
d="M861 448h-10q7 38 7 64q0 93 -46.5 170t-125.5 121.5t-174 44.5t-174 -44.5t-125.5 -121.5t-46.5 -170q0 -19 7 -64h-13q-41 0 -68.5 -27.5t-27.5 -68.5v-320q0 -41 27.5 -68.5t68.5 -27.5h701q41 0 68.5 27.5t27.5 68.5v320q0 41 -27.5 68.5t-68.5 27.5zM221 451
q-7 39 -7 61q0 122 86 205t209 83q122 0 208 -84t86 -204q0 -26 -6 -64h-32h-541zM909 32q0 -19 -14.5 -33.5t-33.5 -14.5h-701q-19 0 -33.5 14.5t-14.5 33.5v320q0 19 14.5 33.5t33.5 14.5h608h90q19 0 33.5 -14.5t14.5 -33.5v-320h3zM512 304q-10 0 -18 -7t-8 -19v-195
q0 -10 7.5 -17.5t18.5 -7.5q26 0 26 25v195q0 10 -8 18t-18 8z" />
    <glyph glyph-name="shengyin" unicode="&#xe64f;" 
d="M784 525q-16 25 -45 54q-7 8 -19 7t-19 -10q-8 -7 -7 -19t10 -19l10 -10q16 -16 25 -35q94 -142 -38 -279q-7 -7 -7 -19t7 -19t19 -7t19 7q55 59 76.5 121t12.5 117.5t-44 110.5zM896 650q-16 25 -54 70q-5 6 -9.5 10.5t-9.5 9t-7 6.5q-7 7 -19 6.5t-19 -10.5
q-8 -7 -7.5 -19t10.5 -19q0 -1 4.5 -4t9 -8t8.5 -10q32 -39 48 -64q175 -265 -70 -519q-7 -7 -7 -19t7 -19t19 -7t19 7q95 99 132.5 203.5t21.5 198.5t-77 187zM483 810l-217 -186h-109q-44 0 -76.5 -32t-32.5 -77v-272q0 -45 31.5 -77t77.5 -32h96l230 -182
q41 -31 73.5 -15t32.5 66v755q0 53 -33.5 69t-72.5 -17zM534 6q0 -16 -3.5 -17.5t-15.5 8.5l-237 185q-6 7 -16 7h-105q-22 0 -38.5 16.5t-16.5 37.5v272q0 22 16.5 38.5t38.5 16.5h118q10 0 16 6l224 192q12 10 14 9t2 -15v-756h3z" />
    <glyph glyph-name="shezhi" unicode="&#xe650;" 
d="M512 198q76 0 129 54.5t53 131.5t-53.5 131.5t-128.5 54.5q-76 0 -129 -54.5t-53 -131.5t53.5 -131.5t128.5 -54.5v0zM512 250q-55 0 -94.5 39.5t-39.5 94.5t39.5 94.5t94.5 39.5t94.5 -39.5t39.5 -94.5t-39.5 -94.5t-94.5 -39.5v0zM249 53q51 -42 112 -67
q66 60 150.5 60t150.5 -60q65 25 112 67q-19 80 22 163q47 79 128 102q7 45 7 67.5t-7 67.5q-81 24 -128 102q-43 73 -22 163q-51 42 -112 68q-66 -61 -150.5 -61t-150.5 61q-65 -25 -112 -68q19 -80 -22 -163q-48 -78 -128 -102q-7 -45 -7 -67.5t7 -67.5q80 -23 128 -102
q41 -83 22 -163zM361 -62q-87 30 -150 89q-12 12 -7 23q25 74 -16 140q-39 69 -112 84q-16 5 -16 19q-9 43 -9 89q0 42 9 90q5 13 16 19q79 21 112 83q37 64 16 141q-5 17 7 23q62 53 150 89q12 4 22 -6q58 -58 128 -58q80 0 128 58q12 12 23 6q87 -30 150 -89q12 -12 7 -23
q-25 -74 16 -141q39 -68 112 -83q16 -5 16 -19q9 -43 9 -90q0 -41 -9 -89q-5 -14 -16 -19q-79 -21 -112 -84q-37 -63 -16 -140q5 -17 -7 -23q-62 -53 -150 -89q-12 -4 -23 6q-57 58 -128 58q-80 0 -128 -58q-6 -6 -16 -6h-6z" />
    <glyph glyph-name="chenghao" unicode="&#xe651;" 
d="M148 747l727 -726zM902 -52l-827 826l47 47l826 -827zM875 747l-727 -726zM122 -52l-47 46l827 827l46 -47z" />
    <glyph glyph-name="tixing" unicode="&#xe652;" 
d="M876 208q-43 37 -70.5 128t-27.5 204q0 86 -49.5 154.5t-129.5 95.5q-5 32 -29.5 53t-57.5 21v0q-33 0 -57.5 -21t-29.5 -53q-80 -27 -129.5 -95.5t-49.5 -154.5q0 -113 -27.5 -204t-70.5 -128q-51 -44 -51 -110q1 -36 26.5 -62t62.5 -26v0h237q0 -36 26 -62t63 -26v0v0
q37 0 63 26t26 62h237v0q37 0 62.5 26t26.5 62q0 67 -51 110zM186 99q0 25 20 42q59 51 93.5 158.5t34.5 240.5q0 73 52.5 125t125.5 52t125.5 -52t52.5 -125q0 -133 34.5 -240.5t93.5 -158.5q20 -17 20 -42h-652z" />
    <glyph glyph-name="guanzhu" unicode="&#xe653;" 
d="M647 469q0 -15 -7 -27.5t-19 -20t-26 -7.5q-22 0 -37.5 16t-15.5 39t15.5 39t37.5 16q2 0 5.5 -1t4.5 -1q-20 15 -44 23t-49 8q-67 0 -114.5 -50t-47.5 -120q0 -46 21.5 -85t59 -62t81.5 -23q67 0 114.5 50t47.5 120q0 53 -30 97q3 -9 3 -11zM962 399q-16 31 -38 61.5
t-50 59t-59 54t-67.5 46.5t-74 36.5t-79 24t-82.5 8.5q-71 0 -141.5 -25t-128.5 -66.5t-104.5 -92.5t-74.5 -106l-9 -16l9 -17q28 -54 74.5 -105.5t104.5 -92.5t128.5 -66t141.5 -25q32 0 64.5 5t62.5 15t60 23.5t56.5 30t52 36t48 41t42 44.5t35.5 46.5t29 47.5l9 17z
M512 145q-114 0 -220.5 71t-163.5 167q36 61 94 114t135.5 88.5t154.5 35.5q59 0 118 -20.5t108.5 -54.5t90 -76t67.5 -87q-57 -96 -163.5 -167t-220.5 -71z" />
    <glyph glyph-name="jiahao" unicode="&#xe654;" 
d="M946 412h-399v398h-76v-398h-398v-76h398v-399h76v399h399v76z" />
    <glyph glyph-name="jianhao" unicode="&#xe655;" 
d="M116 333q-22 0 -36.5 15t-14 36t15.5 36t37 15h790q22 0 36.5 -15t14 -36t-15.5 -36t-37 -15h-790z" />
    <glyph glyph-name="jiangjin" unicode="&#xe656;" 
d="M851 515q15 -4 15 -17v-512q0 -7 -6 -12.5t-15 -5.5h-670q-8 0 -14 5.5t-6 12.5v512q0 13 14 17l294 -118q22 -9 47 -9v0q25 0 48 9zM849 557q-4 0 -8 -2l-299 -119q-15 -6 -31.5 -6t-32.5 6l-298 119q-4 2 -9 2h-2q-23 -2 -39 -19t-16 -40v-512q0 -24 18 -41.5t43 -17.5
h670q26 0 44 17.5t18 41.5v512q0 23 -16 40t-40 19h-2v0zM591 151q8 0 14 -6t6 -14t-6 -14t-14 -6h-60v-42q0 -8 -6 -13t-14 -5t-14 5t-6 13v42h-60q-8 0 -14 6t-6 14t6 14t14 6h60v40h-60q-8 0 -14 6t-6 14t6 14t14 6h41l-38 72q-4 6 -2 14t8.5 12t13.5 1.5t10 -8.5l44 -83
q2 -4 3 -8v0q0 4 2 8l45 83q4 6 11 8.5t13.5 -1.5t8.5 -12t-2 -14l-39 -72h41q8 0 14 -6t6 -14t-6 -14t-14 -6h-60v-40h60zM737 652h-43l-110 179q-6 10 -17 10q-6 0 -11 -4l-367 -225q-8 -5 -10 -13.5t3 -15.5l59 -97l36 22l-49 79l58 36v-137h41v125h390v-125h41v146
q0 8 -6 14t-15 6zM334 652l226 139l85 -139h-311zM641 546h-238q-9 0 -15 -6t-6 -14.5t6 -14.5t15 -6h238q9 0 15 6t6 14.5t-6 14.5t-15 6z" />
    <glyph glyph-name="select" unicode="&#xe657;" 
d="M512 97l450 562h-900z" />
    <glyph glyph-name="checkbox" unicode="&#xe658;" 
d="M387 96q-16 0 -28 11l-264 264q-12 12 -12 28t11.5 27.5t28 11.5t27.5 -11l237 -237l489 489q12 12 28 12t27.5 -11.5t11.5 -28t-12 -27.5l-516 -517q-12 -11 -28 -11v0zM387 96z" />
    <glyph glyph-name="radio" unicode="&#xe659;" 
d="M512 575q79 0 135 -56t56 -135t-56 -135t-135 -56t-135 56t-56 135t56 135t135 56z" />
    <glyph glyph-name="daifukuan" unicode="&#xe65a;" 
d="M892 531l32 25l-224 276l-95 -77l-123 77l-187 -301h-158q-30 0 -51 -21t-21 -50v-452q0 -30 21 -51t51 -21h750q30 0 51 21t21 51v452q0 28 -19.5 48.5t-47.5 22.5zM609 694l41 33l43 35l160 -198l-39 -33h-405l50 41t100 81zM498 763l66 -41l-186 -152zM909 345h-292
q-30 0 -51 -21t-21 -51v-92q0 -30 21 -51t51 -21h292v-101q0 -9 -6.5 -15.5t-15.5 -6.5h-750q-9 0 -15.5 6.5t-6.5 15.5v452q0 9 6.5 15t15.5 6h750q9 0 15.5 -6t6.5 -15v-115zM908 295v-136h-291q-9 0 -15.5 6.5t-6.5 15.5v92q0 9 6.5 15.5t15.5 6.5h291zM631 226.5
q0 -10.5 7.5 -17.5t17.5 -7t17.5 7t7.5 17.5t-7.5 18t-17.5 7.5t-17.5 -7.5t-7.5 -18z" />
    <glyph glyph-name="daifahuo" unicode="&#xe65b;" horiz-adv-x="1025" 
d="M511 793h361q52 0 79 -27.5t27 -79.5v-603q0 -50 -27 -77t-77 -27q-360 -1 -726 0q-49 0 -76 27t-27 77q-1 261 0 603q0 52 26.5 79.5t78.5 27.5h361zM75 484q-2 -29 -2 -31v-368q0 -40 19.5 -59t60.5 -19h715q43 0 62.5 19t19.5 62v364q0 2 -2 31h-299v-278
q-11 9 -34 27t-38.5 30.5t-28.5 24.5q-15 13 -25.5 12.5t-25.5 -12.5q-9 -7 -111 -83v280h-311zM620 761h-202v-496q91 66 106 77q17 -14 49 -39t47 -37v495zM73 516h312v248h-250q-25 -1 -42.5 -18t-18.5 -43q-1 -17 -1 -187zM948 514q2 29 2 30q0 135 -1 158
q-1 25 -17.5 42.5t-39.5 18.5q-26 1 -238 1v-250h294z" />
    <glyph glyph-name="daishouhuo" unicode="&#xe65c;" 
d="M889 790h-497q-26 0 -44.5 -18.5t-18.5 -44.5v-105v0q0 -3 -3 -4l-175 -92q-37 -20 -58.5 -55.5t-21.5 -77.5v-295q0 -9 6.5 -16t16.5 -7t16.5 7t6.5 16v295q0 29 15 53.5t41 38.5l175 92q27 14 27 45v105q0 7 5 12t12 5h497q7 0 12 -5t5 -12v-629q0 -9 7 -16t16.5 -7
t16 7t6.5 16v629q0 26 -18.5 44.5t-44.5 18.5zM701 218q-43 0 -76 -27.5t-41 -69.5h-149q-9 42 -42 69.5t-76 27.5q-49 0 -84.5 -35t-35.5 -84.5t35.5 -84.5t84.5 -35q43 0 76 27.5t42 68.5h149q8 -41 41 -68.5t76 -27.5q50 0 85 35t35 84.5t-35 84.5t-85 35zM317.5 25
q-30.5 0 -52.5 21.5t-22 52t22 52t52.5 21.5t52 -21.5t21.5 -52t-21.5 -52t-52 -21.5zM701.5 25q-30.5 0 -52 21.5t-21.5 52t21.5 52t52 21.5t52 -21.5t21.5 -52t-21.5 -52t-52 -21.5zM390 300v179q0 10 -6.5 16.5t-16 6.5t-16.5 -6.5t-7 -16.5v-133h-124q-9 0 -16 -7
t-7 -16.5t7 -16t16 -6.5h170z" />
    <glyph glyph-name="pinglun" unicode="&#xe65d;" 
d="M331 526v-40h365v40h-365zM331 344h365v40h-365v-40zM493 -29l-110 109h-210q-44 0 -74.5 31.5t-30.5 75.5v476q0 44 30.5 75t74.5 31h681q43 0 74 -31t31 -75v-476q0 -44 -31 -75.5t-74 -31.5h-251zM173 729q-27 0 -46 -19.5t-19 -46.5v-476q0 -27 19 -46.5t46 -19.5
h227l93 -93l93 93h268q27 0 46 19.5t19 46.5v476q0 27 -19 46.5t-46 19.5h-681z" />
    <glyph glyph-name="tuikuan" unicode="&#xe65e;" 
d="M676.5 540.5q-9.5 9.5 -23 9.5t-22.5 -9l-85 -85l-84 85q-10 9 -23 9t-22.5 -9.5t-9.5 -22.5t9 -23l53 -52h-52q-6 0 -6 -7v-51q0 -7 6 -7h97v-43h-97q-6 0 -6 -6v-52q0 -6 6 -6h97v-96q0 -14 9.5 -23.5t23 -9.5t22.5 9.5t9 23.5v96h97q6 0 6 6v52q0 6 -6 6h-97v43h97
q6 0 6 7v51q0 7 -6 7h-51l52 52q10 10 10 23t-9.5 22.5zM939 548q-32 76 -91 135t-136 91q-79 34 -165.5 34t-166.5 -34q-76 -32 -135 -91t-92 -135q-28 -65 -32 -139l-10 122q-9 19 -29 19q-7 0 -14 -3q-12 -5 -16.5 -17.5t0.5 -24.5l66 -148q2 -6 6 -10l-5 7q1 -1 1 -2
q4 -5 9 -9l-5 5l-2 2v0q4 -6 11 -9l-9 6h1v-1v0q5 -4 11 -6l-8 4v0l2 -2v0q1 0 2 -1v0q6 -3 12 -3l-8 1v0h2h1v0l1 -1v0h1q3 -1 6 -1l-4 1v0h1q0 -1 1 -1v0h1h1v0h1h2v0q2 1 3 1v0l8 2l-5 -2v1q5 1 9 4l-7 -4h1q5 2 10 6l-8 -5v0l1 1q5 2 9 7l-7 -6q7 4 11 10l116 100
q10 9 11 22.5t-8 23.5q-10 11 -24 11v0v0q-12 0 -21 -8l-58 -51q24 127 125 210.5t230 83.5q99 0 182 -48.5t131.5 -132t48.5 -182t-48.5 -182t-131.5 -132t-182 -48.5q-134 0 -235 88q-9 7 -21 7v0q-15 0 -25 -11q-8 -10 -7 -23.5t11 -21.5q120 -103 277 -103q87 0 166 34
q77 32 136 91t91 136q34 79 34 165.5t-34 166.5z" />
    <glyph glyph-name="tuihuo" unicode="&#xe65f;" 
d="M573 396h-124q-3 0 -4.5 3t-0.5 5q20 53 20 55q-3 -1 -6 -3q-9 -6 -30 -19l-4 -2q-36 -21 -53 -34q-28 -20 -28 -34q0 -10 14 -20q30 -21 109 -63h1q0 1 -24 56q-1 3 1 5.5t5 2.5h125q22 -3 42.5 -19t20.5 -45q0 -27 -19.5 -45.5t-44.5 -18.5h-147q-10 0 -17 -7t-7 -17v0
q0 -10 7 -17t17 -7h147q52 0 84 33q29 28 28 79v1q0 50 -30 81q-29 30 -82 30zM978 569q0 44 -23 82l-66 106q-23 37 -66 37h-617q-43 0 -65 -37l-67 -106q-23 -38 -23 -82v-114q0 -13 9 -22.5t22 -9.5t22.5 9.5t9.5 22.5v95h801v-482q0 -13 -9 -22t-22 -9h-739q-13 0 -22 9
t-9 22v226q0 13 -9.5 22.5t-22.5 9.5t-22 -9.5t-9 -22.5v-243q0 -32 22.5 -54.5t54.5 -22.5h773q32 0 54.5 22.5t22.5 54.5v518zM126 613l64 103q9 15 26 15h597q17 0 26 -15l64 -103h-777z" />
    <glyph glyph-name="huiyuanqia" unicode="&#xe660;" 
d="M864 716h-704q-53 0 -90 -43q-33 -37 -33 -79v-423q0 -47 34 -80.5t81 -33.5h720q48 0 81.5 33.5t33.5 80.5v426q0 47 -37.5 83t-85.5 36zM160 678h704q33 0 58.5 -25t25.5 -56v-46h-873v43q0 28 24.5 56t60.5 28zM872 95h-720q-32 0 -54.5 22.5t-22.5 53.5v289h874v-289
q0 -31 -22.5 -53.5t-54.5 -22.5zM364 188l-74 200h-33l91 -234h32l91 234h-34zM503 388h31v-234h-31v234zM743 374q-11 8 -25 11t-30 3h-98v-234h31v94h59q43 0 65 18t22 54q0 20 -6.5 33t-17.5 21zM732 300q-3 -8 -9 -13q-7 -5 -17 -8t-26 -3h-59v85h61q11 0 21 -2t17 -7
t11 -13t4 -20q0 -10 -3 -19zM732 300z" />
    <glyph glyph-name="jifen" unicode="&#xe661;" 
d="M428.5 511q83.5 0 161.5 18t128 51v-83h63v182q0 52 -53.5 91.5t-132 58t-167 18.5t-167 -18.5t-132 -58t-53.5 -91.5v-496q0 -52 53.5 -91t132 -58t166.5 -19v63q-64 0 -120 10.5t-92 26t-56.5 34t-20.5 34.5v149q50 -33 128 -51t161 -18v63q-64 0 -120 10t-92 26
t-56.5 34t-20.5 35v149q50 -33 128 -51t161.5 -18zM428.5 784q64.5 0 120.5 -10t92 -26t56.5 -34t20.5 -35t-20.5 -35t-56.5 -34t-92 -26t-120.5 -10t-120.5 10t-92 26t-56.5 34t-20.5 35t20.5 35t56.5 34t92 26t120.5 10zM710 477q-111 0 -174 -36t-63 -84v-318
q0 -48 63 -83.5t174 -35.5q110 0 173.5 35t64.5 83v0v319q0 48 -63.5 84t-174.5 36zM710 414q33 0 62.5 -4.5t49.5 -11t34.5 -14t21.5 -14.5t7 -12.5t-7 -12.5t-21.5 -15t-34.5 -14.5t-49.5 -10.5t-62.5 -4t-62 4t-49 10.5t-35 14.5t-22 15t-7 12.5t7 12.5t22 14.5t35 14
t49 11t62 4.5zM710 -18q-33 0 -62 4.5t-49 11t-35 14t-22 14.5t-7 13v76q67 -36 175 -36t175 36v-76q0 -6 -7 -13t-21.5 -14.5t-34.5 -14t-49.5 -11t-62.5 -4.5zM710 142q-33 0 -62 4t-49 10.5t-35 14.5t-22 15t-7 12v76q67 -36 175 -36t175 36v-76q0 -5 -7 -12t-21.5 -15
t-34.5 -14.5t-49.5 -10.5t-62.5 -4zM710 142z" />
    <glyph glyph-name="shouji" unicode="&#xe662;" 
d="M774 834h-524q-16 0 -27.5 -11.5t-11.5 -27.5v-822q0 -16 11.5 -27.5t27.5 -11.5h524q16 0 27.5 11.5t11.5 27.5v822q0 16 -11.5 27.5t-27.5 11.5zM774 795v-642h-524v642h524zM250 -27v141h524v-141h-524v0zM466 48q0 -19 13.5 -32t32.5 -13t32.5 13t13.5 32t-13.5 32.5
t-32.5 13.5t-32.5 -13.5t-13.5 -32.5v0v0z" />
    <glyph glyph-name="dianpuguanli" unicode="&#xe663;" horiz-adv-x="1025" 
d="M963 223l-17 75q-2 9 -9 15.5t-16 7.5l-29 3q-18 2 -26 12q-7 10 -6 29l4 29q1 9 -4 18t-12 13l-69 33q-5 3 -12 3q-13 0 -21 -9l-20 -21q-13 -13 -25.5 -13t-25.5 13l-20 21q-9 9 -22 9q-6 0 -12 -3l-68 -33q-8 -4 -12.5 -13t-3.5 -17l3 -30q2 -18 -5 -29q-8 -9 -26 -12
l-29 -3q-9 -1 -16.5 -7.5t-8.5 -15.5l-17 -75q-2 -9 1.5 -18t11.5 -14l25 -16q15 -10 17 -22q3 -13 -6 -28l-16 -26q-11 -18 2 -34l47 -61q8 -11 24 -11q4 0 9 2l27 10q8 3 16 3t12 -3q12 -5 18 -22l9 -29q3 -8 11 -14t17 -6h75q9 0 17 6t11 14l9 29q6 17 18 22q4 3 12 3
q9 0 16 -3l28 -10q3 -1 8 -1q15 0 24 11l47 60q13 17 2 34l-16 26q-9 15 -6.5 27.5t18.5 22.5l24 16q8 5 11.5 14t1.5 18zM866 175l-6 -24q-4 -19 7 -37l9 -15q9 -14 -2 -28l-11 -15q-7 -9 -20 -9q-4 0 -7 2l-16 5q-6 3 -15 3q-13 0 -22 -5l-21 -10q-18 -9 -24 -28l-6 -17
q-2 -7 -9 -11.5t-14 -4.5h-18q-7 0 -13.5 4.5t-8.5 11.5l-6 17q-6 19 -24 28l-21 10q-9 5 -22 5q-9 0 -15 -3l-17 -5q-3 -2 -7 -2q-12 0 -19 9l-11 15q-11 14 -2 28l9 15q11 18 7 37l-6 24q-4 19 -21 30l-15 10q-14 9 -10 26l4 18q1 7 7 12.5t13 6.5l18 2q19 2 32 18l14 19
q13 16 10 36l-2 17q-1 18 14 26l16 7q5 3 10 3q11 0 17 -7l13 -13q14 -14 34 -14h23q20 0 34 14l12 13q7 7 18 7q6 0 10 -3l16 -7q6 -4 10 -11t3 -15l-2 -17q-2 -21 11 -36l14 -19q13 -16 32 -18l18 -2q7 -1 13 -6.5t7 -12.5l4 -18q4 -17 -10 -26l-15 -10q-17 -10 -21 -30z
M700.5 310q-46.5 0 -79.5 -33t-33 -79.5t33 -79.5t79.5 -33t79.5 33t33 79.5t-33 79.5t-79.5 33zM700.5 130q-28.5 0 -48.5 19.5t-20 47.5t20 48t48.5 20t48.5 -20t19.5 -48t-20 -47.5t-48 -19.5zM415 0h-241q-9 0 -15.5 6.5t-6.5 15.5v219q0 10 -6.5 16t-15.5 6t-15.5 -6
t-6.5 -16v-219q0 -27 19 -46.5t47 -19.5h241q9 0 15.5 6.5t6.5 15.5t-6.5 15.5t-15.5 6.5v0zM942 594q-1 14 -7 27v0q-104 178 -105 179q-6 11 -11 17.5t-18.5 11.5t-34.5 5h-526q-26 0 -41 -9.5t-27 -28.5l-100 -172v0v0q-8 -15 -9 -30v-1v-153q0 -55 37 -94t89 -39
q32 0 59.5 15.5t45.5 42.5q8 -13 20 -24q0 -1 2 -2q0 -1 1 -1q2 -2 5 -4q10 -8 19 -13v0l4 -2q22 -10 46 -11l1 -0.5l1 -0.5q9 0 15.5 6.5t6.5 15.5t-6.5 15.5t-15.5 6.5h-1h-1q-29 2 -50 25t-25 54v10v22q0 9 -6.5 16t-15.5 7t-15.5 -7t-6.5 -16v-22q0 -36 -24.5 -61.5
t-58.5 -25.5t-58 25.5t-24 61.5v153q1 8 6.5 14t14.5 6h749q9 0 15 -6t6 -14v-110q0 -9 6.5 -15.5t15.5 -6.5t15.5 6.5t6.5 15.5v110v1zM144 659q1 3 16 27t30 49.5t22 36.5q9 16 28 16h526q10 0 15.5 -2.5t12.5 -13.5q50 -84 68 -113h-718z" />
    <glyph glyph-name="caidan" unicode="&#xe664;" 
d="M62 744h105v-105h-105v105zM264 744h698v-105h-698v105zM62 437h105v-106h-105v106zM264 437h698v-106h-698v106zM62 129h105v-105h-105v105zM264 129h698v-105h-698v105z" />
    <glyph glyph-name="jifenshangcheng" unicode="&#xe665;" 
d="M904 162q-7 3 -10 18l-60 400q-1 6 -4 10q-2 9 -9.5 15t-17.5 6h-153v63q0 62 -44 106t-106.5 44t-106.5 -44t-44 -106v-63h-153q-12 0 -20 -8t-8 -20v-2v-0.5v-0.5l-78 -519v-3v0q0 -46 32.5 -78.5t78.5 -32.5h600q2 0 4 1h22q33 0 56.5 23t23.5 56t-23.5 56.5
t-56.5 23.5h-599q-9 0 -15 -6t-6 -14.5t6 -14.5t15 -6h599q16 0 27.5 -11.5t11.5 -27t-11.5 -27t-27.5 -11.5h-599h-4h-23q-29 0 -49 19.5t-21 48.5l77 513h141v-84q-22 -12 -22 -37q0 -18 12.5 -31t30.5 -13t30.5 13t12.5 31q0 25 -22 37v84h217v-84q-22 -12 -22 -37
q0 -18 12.5 -31t30.5 -13t30.5 13t12.5 31q0 25 -22 38v83h144l59 -397v-1q8 -37 36 -49q4 -1 8 -1q14 0 19 13q3 8 -0.5 16t-11.5 11zM370 438q-4 0 -7 3t-3 7.5t3 7.5t7 3t7 -3t3 -7.5t-3 -7.5t-7 -3zM629.5 438q-4.5 0 -7.5 3t-3 7.5t3 7.5t7.5 3t7.5 -3t3 -7.5t-3 -7.5
t-7.5 -3zM391 611v63q0 45 32 77t76.5 32t76.5 -32t32 -77v-63h-217z" />
    <glyph glyph-name="kefu" unicode="&#xe666;" 
d="M816 -73q-13 0 -24 7l-37 25q-2 1 -3 2l-32 22q-135 -22 -245 49q-8 5 -10 14.5t3 17.5q6 8 15.5 10t16.5 -3q100 -64 221 -41q10 2 18 -4l40 -27q1 0 1.5 -1t1.5 -1l29 -19v70q0 14 11 20q55 33 85.5 84.5t30.5 108.5q0 26 -5 48q-8 33 -27 63q-5 8 -2.5 17.5t10.5 14.5
t17.5 3t14.5 -11q23 -37 32 -75q7 -29 7 -60q0 -67 -33.5 -126.5t-93.5 -99.5v-66q0 -25 -22 -38q-11 -4 -20 -4zM256 28q-11 0 -20 5q-22 12 -22 37v99q-82 53 -128 132t-46 168q0 101 57 186.5t155 135.5t213 50t213 -50t154.5 -135.5t56.5 -186.5t-56.5 -186.5
t-154.5 -135.5t-213 -50q-40 0 -81 7l-50 -33q-1 0 -4 -3l-52 -34q-9 -6 -22 -6v0zM465 794q-102 0 -189 -43.5t-138 -118.5t-51 -163q0 -80 43.5 -150.5t119.5 -116.5q12 -7 12 -20v-103l43 29q1 1 3 2l58 39q8 5 18 3q42 -8 81 -8q103 0 190 43.5t137.5 118.5t50.5 163
t-50.5 163t-137.5 118.5t-190 43.5zM465 794zM365 487.5q0 -16.5 -12 -28.5t-28.5 -12t-28.5 12t-12 28.5t12 28.5t28.5 12t28.5 -12t12 -28.5zM513 487.5q0 -16.5 -12 -28.5t-28.5 -12t-28.5 12t-12 28.5t12 28.5t28.5 12t28.5 -12t12 -28.5zM661 487.5q0 -16.5 -12 -28.5
t-28.5 -12t-28.5 12t-12 28.5t12 28.5t28.5 12t28.5 -12t12 -28.5z" />
    <glyph glyph-name="fenxiao" unicode="&#xe667;" 
d="M898 176q-30 90 -91 153q-53 53 -125 83q-68 28 -139 33v49v4q62 11 103.5 60t41.5 113q0 72 -51.5 123.5t-124 51.5t-124 -51t-51.5 -124q0 -64 41 -112.5t103 -60.5q-1 -1 -1 -4v-48q-72 -6 -139 -34q-72 -30 -125 -83q-62 -62 -91 -153q-44 -10 -73 -45t-29 -81
q0 -53 38 -90.5t91 -37.5t90.5 37.5t37.5 90.5q0 43 -25 77t-65 46q48 127 173 181q56 23 118 29v-208q-43 -11 -70.5 -45.5t-27.5 -79.5q0 -53 37.5 -90.5t91 -37.5t91 37.5t37.5 90.5q0 45 -27.5 79.5t-69.5 45.5v208q58 -5 115 -28q127 -54 175 -183q-39 -13 -64 -46.5
t-25 -75.5q0 -53 38 -91t91 -38t90.5 38t37.5 91q0 46 -29.5 81.5t-73.5 44.5zM218 50q0 -27 -19.5 -46.5t-47 -19.5t-47 19.5t-19.5 47t19.5 46.5t47 19t47 -19.5t19.5 -46.5zM399 671q0 47 33.5 80t80 33t79.5 -33t33 -80t-33 -80t-79.5 -33t-80 33t-33.5 80zM578 50.5
q0 -27.5 -19.5 -47t-47 -19.5t-47 19.5t-19.5 47t19.5 46.5t47 19t47 -19t19.5 -46.5zM872.5 -16q-27.5 0 -47 19.5t-19.5 47t19.5 46.5t47 19t47 -19t19.5 -46.5t-19.5 -47t-47 -19.5zM872 -16z" />
    <glyph glyph-name="shouye" unicode="&#xe668;" 
d="M978 376l-470 439l-469 -438q-7 -6 -7.5 -15.5t6 -16.5t16 -7t16.5 6l438 409l439 -410q7 -6 16 -6v0q10 0 16 7q7 7 6.5 16.5t-7.5 15.5zM978 376zM834.5 367q-9.5 0 -16 -6.5t-6.5 -16.5v-348h-182v242h-243v-242h-182v348q0 10 -7 16.5t-16 6.5t-16 -6.5t-7 -16.5
v-394h274v243h151v-243h274v394q0 10 -7 16.5t-16.5 6.5zM675 693h137v-121q0 -10 6.5 -16.5t16 -6.5t16.5 6.5t7 16.5v167h-183q-9 0 -15.5 -7t-6.5 -16t6.5 -16t15.5 -7zM675 693z" />
    <glyph glyph-name="wode" unicode="&#xe669;" 
d="M512 857q-96 0 -183.5 -37.5t-151 -101t-100.5 -151t-37 -183.5t37 -183.5t100.5 -150.5t151 -100.5t183.5 -37.5t183.5 37.5t151 100.5t100.5 150.5t37 183.5t-37 183.5t-100.5 151t-151 101t-183.5 37.5zM512 -45q-117 0 -216 57.5t-156.5 156t-57.5 215.5t57.5 216
t156.5 156.5t216 57.5t216 -57.5t156.5 -156.5t57.5 -216t-57.5 -215.5t-156.5 -156t-216 -57.5zM792 34v2q0 3 -1 6q-9 77 -55.5 138t-116.5 91q41 28 64.5 72t23.5 95q0 83 -59 142.5t-143 59.5t-143 -59.5t-59 -142.5q0 -51 23.5 -95t64.5 -72q-69 -30 -115.5 -90
t-56.5 -136q-2 -4 -2 -9v0v-2v0v0v-1q0 -12 8.5 -20.5t20.5 -8.5t20.5 8.5t8.5 20.5v1h1q10 82 71 139.5t145 62.5q7 -1 13 -1t12 1q84 -5 145.5 -62.5t71.5 -139.5h1v-1q0 -12 8.5 -20.5t20 -8.5t20 8.5t8.5 20.5v1v0v0v0zM505 293q-60 0 -102.5 42.5t-42.5 102t42.5 102
t102.5 42.5t102 -42.5t42 -102t-42 -102t-102 -42.5zM505 293z" />
    <glyph glyph-name="banquan" unicode="&#xe66a;" 
d="M515.5 207q-77.5 0 -132.5 55t-55 132t55 132t132.5 55t132 -55t54.5 -132t-54.5 -132t-132 -55zM515.5 526q-54.5 0 -93 -39t-38.5 -93.5t38.5 -93t93 -38.5t93 38.5t38.5 93t-38.5 93.5t-93 39zM543 310h-18q-35 0 -59.5 24.5t-24.5 59.5t24.5 59.5t59.5 24.5h18
q11 0 19 -8t8 -19.5t-8 -20t-19 -8.5h-18q-12 0 -20 -8t-8 -20t8 -20.5t20 -8.5h18q11 0 19 -8t8 -19.5t-8 -19.5t-19 -8zM515 -76q-6 0 -11 3l-189 85q-96 44 -152 122t-56 169v407q0 13 10 21.5t23 5.5q37 -7 75 -7q62 0 120 19.5t102 54.5l61 49q17 14 35 0l60 -49
q44 -35 102 -54.5t121 -19.5q38 0 74 7q13 3 23 -5.5t10 -21.5v-407q0 -91 -56 -169t-152 -122l-188 -85q-6 -3 -12 -3zM162 678v-375q0 -74 47.5 -138.5t128.5 -101.5l177 -81l177 81q82 37 129 101.5t47 138.5v375q-25 -3 -52 -3v0q-150 0 -257 86l-44 35l-43 -35
q-107 -86 -257 -86v0q-28 0 -55 3h2z" />
    <glyph glyph-name="meiyoushuju" unicode="&#xe66b;" 
d="M851 834h-683q-21 0 -35.5 -14.5t-14.5 -34.5v-471q0 -20 15 -34.5t35 -14.5h37q6 -16 19 -26l-1 2h2q69 -18 79 -46q4 -12 4 -22l-1 -238h27v237q-1 9 -2.5 16t-2.5 11l-1 3q-18 40 -95 61q-6 7 -6 13v0q0 8 8 14h1q7 6 16 8l-5 -2l3 1q10 3 23 3q31 0 72 -12
q10 -5 13 -7q41 -22 68 -57l-45 43q25 -17 42.5 -33.5t24.5 -26.5t11.5 -19t3 -12t-0.5 -5v0q-1 -2 -1 -5q0 -5 3 -8.5t8 -3.5v0q8 0 11 6q2 3 3 7.5t-0.5 14.5t-7 21t-19.5 27.5t-35 34.5h209q-21 -18 -35 -34.5t-19 -27.5t-6.5 -21t-0.5 -14l2 -8q4 -6 11 -6q3 0 6 1
q6 3 6 11q0 2 -1 5q-4 37 80 96q38 27 84 35q-8 -3 -8 -3.5t12 0.5q13 1 20 1q14 0 24 -3q5 -2 7 -3h1q4 -2 6 -4v0q8 -6 9 -14v0q-1 -8 -7 -13q-80 -21 -93 -61q-4 -11 -5 -33q3 -7 3 -234h23l-2 238l3 21q10 29 81 47q4 1 7 5q11 10 14 27q18 -6 32 7.5t14 33.5v0v471
q0 20 -14.5 34.5t-35.5 14.5v0zM244 607h106q14 -50 -6 -106l-1 -4q-6 -17 -8.5 -27.5t-0.5 -35t13 -53.5q17 -43 0 -68v0l-3 1q-29 11 -61 12l16 -1q-9 1 -19 1h-2q-8 0 -16 -1h-1l-1 -0.5t-2 -0.5q10 45 -6 68q-11 17 -11.5 57t11.5 77q8 24 -8 81v0zM710 381
q11 29 13.5 53.5t0 35t-8.5 27.5l-1 4q-20 56 -6 105h105q-16 -56 -7 -80q12 -37 11 -77.5t-12 -56.5q-15 -23 -6 -68h-2l-3 1q-9 1 -19 1h2q-36 0 -68 -14q-13 31 1 69v0zM877 314q0 -10 -7 -17.5t-18 -8.5q-4 11 -12 18l3 -3v1q-9 8 -20 12l12 -6q-11 8 -25 11l17 -6l-1 1
v0q-13 44 -1 63q15 22 16 68.5t-13 86.5q-6 19 10 73h5q5 0 8.5 3.5t3.5 8t-3.5 8t-8.5 3.5h-154q-3 2 -5 2q-5 0 -8.5 -3.5t-3.5 -8.5t3.5 -8.5t8.5 -3.5q-14 -55 7 -115l1 -4q6 -14 8 -23.5t0 -30t-12 -45.5q-20 -52 1 -87q-12 -6 -24 -14h-272l-3 1q-39 27 -87 36
q36 -3 54 4t19 22.5t-7 37.5q-9 25 -11 45.5t0 30t7 23.5l1 4q22 60 8 115q6 3 6 11q0 5 -3.5 8t-7.5 3h-154q-5 0 -8.5 -3.5t-3.5 -8t3.5 -8t8.5 -3.5h5q16 -54 10 -73q-14 -39 -13 -86t16 -69q12 -18 -1 -63l-0.5 -0.5l-0.5 -0.5l-3 -1q-13 -8 -23 -20l16 15
q-9 -7 -14 -17l7 11l-0.5 -0.5l-0.5 -0.5q-1 -2 -4 -5v-1q-4 -7 -6 -15l-35 8q-11 0 -18.5 7.5t-7.5 17.5v0v471q0 10 7.5 17.5t18.5 7.5h683q11 0 18.5 -7.5t7.5 -17.5v-471v0zM484 662q0 5 -3 8.5t-8 3.5v0q-40 0 -91 36q-17 14 -39 19l25 -11v0q-5 0 -8.5 -3.5t-3.5 -8.5
q0 -6 5 -10q3 -1 7 -5q57 -41 105 -41q4 0 7.5 3.5t3.5 8.5zM654 716q-1 -1 -8 -6q-51 -36 -91 -36q-5 0 -8.5 -3.5t-3.5 -8.5t3.5 -8.5t8.5 -3.5q48 0 105 41q6 5 7 5q5 4 5 10q0 5 -3.5 8.5t-8.5 3.5q-3 0 -6 -2v0zM594 394l-80 36q-2 1 -4 1q-3 0 -6 -1l-70 -36
q-7 -3 -7 -10q0 -3 1 -6q4 -6 11 -6q3 0 5 1l66 33l75 -33q2 -1 4 -1q8 0 11 7q1 2 1 4q0 8 -7 11v0z" />
  </font>
</defs>
</svg>
