<?xml version="1.0" encoding="iso-8859-1"?>
<!-- Generator: Adobe Illustrator 16.0.0, SVG Export Plug-In . SVG Version: 6.00 Build 0)  -->
<!DOCTYPE svg PUBLIC "-//W3C//DTD SVG 1.1//EN" "http://www.w3.org/Graphics/SVG/1.1/DTD/svg11.dtd">
<svg version="1.1" id="&#x56FE;&#x5C42;_1" xmlns="http://www.w3.org/2000/svg" xmlns:xlink="http://www.w3.org/1999/xlink" x="0px"
	 y="0px" width="400px" height="400px" viewBox="0 0 400 400" style="enable-background:new 0 0 400 400;" xml:space="preserve">
<g>
	<path style="fill-rule:evenodd;clip-rule:evenodd;" d="M46.516,294.709c40.736,0.004,81.473,0.043,122.207-0.07
		c2.502-0.006,5.221-0.764,7.47-1.9c55.413-28.023,110.772-56.146,166.151-84.236c1.086-0.551,2.258-0.934,3.416-1.406
		c1.709,6.148,1.146,7.242-3.947,9.816c-52.516,26.559-105.098,52.99-157.419,79.928c-7.205,3.709-14.078,5.484-22.041,5.441
		c-38.611-0.209-77.224-0.082-115.836-0.074C46.516,299.709,46.516,297.209,46.516,294.709z"/>
	<path style="fill-rule:evenodd;clip-rule:evenodd;" d="M145,257.502c-2.207,0.941-3.738,1.594-5.27,2.248
		c-10.199,4.369-20.143,9.574-30.688,12.819c-7.162,2.203-12.999,4.258-18.104,10.584c-8.299,10.289-26.066,7.279-32.569-4.232
		c-4.527-8.015-4.105-16.597-3.452-25.21c0.826-10.895,3.41-21.371,7.167-31.679c9.161-25.13,18.024-50.367,31.115-73.83
		c1.146-2.056,2.472-4.075,4.044-5.813c1.936-2.14,1.453-3.529-0.879-4.617c-3.961-1.846-7.98-3.568-11.941-5.412
		c-1.342-0.624-2.807-1.234-3.828-2.245c-2.01-1.99-1-4.887,1.803-5.292c1.186-0.171,2.549-0.025,3.672,0.398
		c13.197,4.968,25.718,11.193,35.696,21.412c1.975,2.022,2.932,5.355,3.52,8.252c0.226,1.118-1.884,2.708-2.929,4.083
		c-1.251-1.017-2.67-1.886-3.719-3.08c-2.501-2.85-4.537-6.169-7.301-8.712c-3.291-3.028-6-2.607-9.05,0.786
		c-1.235,1.375-2.2,3.031-3.097,4.665c-12.674,23.107-21.397,47.854-30.355,72.529c-4.588,12.635-7.025,25.488-6.76,38.877
		c0.044,2.229,0.268,4.523,0.869,6.658c2.602,9.229,9.188,12.808,18.408,10.187c5.525-1.572,7.295-5.242,5.275-10.534
		c-0.516-1.352-0.992-3.105-0.566-4.359c2.029-5.973,4.178-11.922,6.705-17.695c1.035-2.363,3.684-4.104,6.207-2.729
		c1.761,0.957,3.588,3.383,3.772,5.307c0.364,3.779-0.22,7.689-0.743,11.5c-0.516,3.76,0.035,4.705,3.486,3.723
		c16.248-4.633,31.372-11.574,44.578-22.313c0.193-0.158,0.359-0.348,0.549-0.512c2.016-1.74,4.236-3.074,6.676-1.029
		c2.248,1.883,1.489,4.215,0.377,6.492c-1.586,3.244-3.198,6.488-4.528,9.84c-0.444,1.119-0.055,2.568-0.046,3.867
		c1.309-0.477,3.02-0.578,3.863-1.486c8.988-9.67,17.765-19.535,26.789-29.17c1.671-1.783,4.058-3.072,6.341-4.064
		c3.828-1.664,7.79-3.076,11.794-4.241c1.658-0.482,3.582-0.047,5.385-0.029c-0.275,1.819,0.082,4.61-0.943,5.28
		c-3.58,2.334-7.497,4.377-11.563,5.668c-2.918,0.926-4.796,2.357-6.839,4.584c-9.029,9.83-18.292,19.455-27.769,28.855
		c-1.997,1.98-5.132,3.16-7.953,3.885c-4.582,1.179-7.854-1.689-7.856-6.455C144.343,262.949,144.72,260.637,145,257.502z"/>
	<path style="fill-rule:evenodd;clip-rule:evenodd;" d="M273.628,171.72c1.34-0.604,1.779-0.664,1.992-0.916
		c7.4-8.775,14.92-17.455,22.068-26.428c2.043-2.564,2.977-6.006,4.471-9.019c0.77-1.55,1.35-3.396,2.578-4.455
		c1.039-0.895,3.139-1.489,4.311-1.035c1.162,0.452,2.223,2.298,2.463,3.682c0.26,1.487-0.443,3.161-0.807,4.735
		c-2.148,9.364-4.467,18.693-6.426,28.096c-1.107,5.309,0.871,9.115,5.256,10.689c1.357,0.488,3.332,0.48,4.568-0.168
		c2.984-1.568,6.406-11.537,5.424-15.432c-1.238,0.666-2.334,1.568-3.563,1.824c-1.211,0.254-2.967,0.301-3.732-0.393
		c-0.764-0.688-1.244-2.91-0.721-3.592c2.314-3.011,4.66-6.256,7.715-8.371c3.262-2.256,7.541-0.035,8.125,4.215
		c0.549,3.99,0.545,8.311-0.418,12.186c-1.098,4.41-3.258,8.635-5.455,12.67c-2.479,4.551-6.662,6.09-11.814,5.07
		c-8.199-1.623-13.865-9.209-13.047-17.535c0.26-2.641,0.648-5.272,0.977-7.907c-0.334-0.148-0.668-0.299-1.004-0.447
		c-0.984,0.832-2.113,1.541-2.93,2.516c-5.611,6.696-11.199,13.415-16.713,20.192c-3.971,4.883-6.088,10.525-6.748,16.796
		c-1.661,15.785-8.308,30.003-14.228,44.436c-0.555,1.354-1.365,2.904-2.52,3.641c-1.664,1.059-4.021,2.359-5.582,1.891
		c-1.74-0.521-3.941-2.773-4.174-4.51c-1.25-9.307-2.23-18.823,2.363-27.546c3.889-7.386,8.195-14.589,12.799-21.554
		c3.83-5.796,6.176-11.843,6.646-18.798c0.82-12.088,2.033-24.149,2.865-36.237c0.141-2.045-0.273-5.569-1.344-5.97
		c-2.695-1.009-5.848-1.807-8.816,0.595c-4.316,3.488-9.248,3.527-14.082,1.004c-4.928-2.57-6.41-7.064-6.225-12.289
		c0.168-4.73,2.391-7.492,7.092-7.427c3.338,0.047,6.949,0.897,9.92,2.407c5.178,2.633,4.994,2.952,8.441-1.916
		c0.863-1.219,1.75-2.461,2.822-3.483c3.363-3.206,7.476-2.238,8.614,2.294c0.813,3.229,1.135,6.688,1.021,10.021
		c-0.422,12.352-1.113,24.693-1.707,37.037C273.966,165.21,273.81,168.13,273.628,171.72z"/>
</g>
</svg>
